<svg xmlns="http://www.w3.org/2000/svg" xmlns:xlink="http://www.w3.org/1999/xlink" viewBox="0 0 200.87 111.08"><defs><style>.cls-1{fill:#f4d398;}.cls-2{fill:#fdb626;}.cls-3{fill:#fff;}.cls-4{fill:#445061;}.cls-5{fill:#5c6e80;}.cls-6{fill:url(#linear-gradient);}.cls-7{fill:url(#linear-gradient-2);}.cls-8{fill:url(#linear-gradient-3);}.cls-9{fill:#2d3c51;}</style><linearGradient id="linear-gradient" x1="76.51" y1="49.42" x2="82.74" y2="49.42" gradientUnits="userSpaceOnUse"><stop offset="0.06" stop-color="#f9a646"/><stop offset="0.97" stop-color="#ee4356"/></linearGradient><linearGradient id="linear-gradient-2" x1="44.31" y1="53.65" x2="50.54" y2="53.65" xlink:href="#linear-gradient"/><linearGradient id="linear-gradient-3" x1="28.28" y1="77.27" x2="34.5" y2="77.27" xlink:href="#linear-gradient"/></defs><title>Asset 11</title><g id="Layer_2" data-name="Layer 2"><g id="Layer_1-2" data-name="Layer 1"><path class="cls-1" d="M175.19,67.17v4.27c0,1.89,1.25,3.78,3.73,5.22,5,2.9,13.12,2.9,18.15,0,2.53-1.46,3.79-3.38,3.79-5.29V67.1c0,1.91-1.26,3.83-3.79,5.29-5,2.9-13.16,2.9-18.15,0C176.43,70.95,175.19,69.06,175.19,67.17Z"/><path class="cls-2" d="M179,61.88c-5,2.9-5.06,7.61-.06,10.51s13.12,2.9,18.15,0,5.05-7.61.06-10.51S184,59,179,61.88Z"/><path class="cls-1" d="M175.19,60.5v4.27c0,1.89,1.25,3.78,3.73,5.22,5,2.9,13.12,2.9,18.15,0,2.53-1.46,3.79-3.38,3.79-5.29V60.43c0,1.91-1.26,3.83-3.79,5.29-5,2.9-13.16,2.9-18.15,0C176.43,64.28,175.19,62.39,175.19,60.5Z"/><path class="cls-2" d="M179,55.21c-5,2.9-5.06,7.61-.06,10.51s13.12,2.9,18.15,0,5.05-7.61.06-10.51S184,52.31,179,55.21Z"/><path class="cls-1" d="M175.19,53.84v4.27c0,1.89,1.25,3.78,3.73,5.22,5,2.9,13.12,2.9,18.15,0,2.53-1.46,3.79-3.38,3.79-5.29V53.76c0,1.91-1.26,3.83-3.79,5.29-5,2.9-13.16,2.9-18.15,0C176.43,57.62,175.19,55.73,175.19,53.84Z"/><path class="cls-2" d="M179,48.54c-5,2.9-5.06,7.61-.06,10.51s13.12,2.9,18.15,0,5.05-7.61.06-10.51S184,45.64,179,48.54Z"/><path class="cls-1" d="M175.19,47.17v4.27c0,1.89,1.25,3.78,3.73,5.22,5,2.9,13.12,2.9,18.15,0,2.53-1.46,3.79-3.38,3.79-5.29V47.1c0,1.91-1.26,3.83-3.79,5.29-5,2.9-13.16,2.9-18.15,0C176.43,51,175.19,49.06,175.19,47.17Z"/><path class="cls-2" d="M179,41.88c-5,2.9-5.06,7.61-.06,10.51s13.12,2.9,18.15,0,5.05-7.61.06-10.51S184,39,179,41.88Z"/><path class="cls-1" d="M175.19,40.51v4.27c0,1.89,1.25,3.78,3.73,5.22,5,2.9,13.12,2.9,18.15,0,2.53-1.46,3.79-3.38,3.79-5.29V40.43c0,1.91-1.26,3.83-3.79,5.29-5,2.9-13.16,2.9-18.15,0C176.43,44.29,175.19,42.4,175.19,40.51Z"/><path class="cls-2" d="M179,35.21c-5,2.9-5.06,7.61-.06,10.51s13.12,2.9,18.15,0,5.05-7.61.06-10.51S184,32.31,179,35.21Z"/><path class="cls-1" d="M175.19,34.13v4.27c0,1.89,1.25,3.78,3.73,5.22,5,2.9,13.12,2.9,18.15,0,2.53-1.46,3.79-3.38,3.79-5.29V34.06c0,1.91-1.26,3.83-3.79,5.29-5,2.9-13.16,2.9-18.15,0C176.43,37.91,175.19,36,175.19,34.13Z"/><path class="cls-2" d="M179,28.84c-5,2.9-5.06,7.61-.06,10.51s13.12,2.9,18.15,0,5.05-7.61.06-10.51S184,25.94,179,28.84Z"/><path class="cls-1" d="M175.19,27.47v4.27c0,1.89,1.25,3.78,3.73,5.22,5,2.9,13.12,2.9,18.15,0,2.53-1.46,3.79-3.38,3.79-5.29V27.39c0,1.91-1.26,3.83-3.79,5.29-5,2.9-13.16,2.9-18.15,0C176.43,31.25,175.19,29.36,175.19,27.47Z"/><path class="cls-2" d="M179,22.17c-5,2.9-5.06,7.61-.06,10.51s13.12,2.9,18.15,0,5.05-7.61.06-10.51S184,19.27,179,22.17Z"/><path class="cls-1" d="M175.19,20.8v4.27c0,1.89,1.25,3.78,3.73,5.22,5,2.9,13.12,2.9,18.15,0,2.53-1.46,3.79-3.38,3.79-5.29V20.73c0,1.91-1.26,3.83-3.79,5.29-5,2.9-13.16,2.9-18.15,0C176.43,24.58,175.19,22.69,175.19,20.8Z"/><path class="cls-2" d="M179,15.51c-5,2.9-5.06,7.61-.06,10.51s13.12,2.9,18.15,0,5.05-7.61.06-10.51S184,12.61,179,15.51Z"/><path class="cls-1" d="M175.19,14.14v4.27c0,1.89,1.25,3.78,3.73,5.22,5,2.9,13.12,2.9,18.15,0,2.53-1.46,3.79-3.38,3.79-5.29V14.06c0,1.91-1.26,3.83-3.79,5.29-5,2.9-13.16,2.9-18.15,0C176.43,17.91,175.19,16,175.19,14.14Z"/><path class="cls-2" d="M179,8.84c-5,2.9-5.06,7.61-.06,10.51s13.12,2.9,18.15,0,5.05-7.61.06-10.51S184,5.94,179,8.84Z"/><path class="cls-1" d="M175.19,7.47v4.27c0,1.89,1.25,3.78,3.73,5.22,5,2.9,13.12,2.9,18.15,0,2.53-1.46,3.79-3.38,3.79-5.29V7.4c0,1.91-1.26,3.83-3.79,5.29-5,2.9-13.16,2.9-18.15,0C176.43,11.25,175.19,9.36,175.19,7.47Z"/><path class="cls-2" d="M179,2.18c-5,2.9-5.06,7.61-.06,10.51s13.12,2.9,18.15,0,5.05-7.61.06-10.51S184-.73,179,2.18Z"/><polygon class="cls-3" points="100.88 87.03 139.45 109.45 137.6 110.52 145.06 111.08 144.11 106.76 142.27 107.82 103.69 85.41 100.88 87.03"/><path class="cls-1" d="M145.39,77.35v4.27c0,1.89,1.25,3.78,3.73,5.22,5,2.9,13.12,2.9,18.15,0,2.53-1.46,3.79-3.38,3.79-5.29V77.27c0,1.91-1.26,3.83-3.79,5.29-5,2.9-13.16,2.9-18.15,0C146.64,81.12,145.4,79.24,145.39,77.35Z"/><path class="cls-2" d="M149.18,72.05c-5,2.9-5.06,7.61-.06,10.51s13.12,2.9,18.15,0,5.05-7.61.06-10.51S154.21,69.15,149.18,72.05Z"/><path class="cls-1" d="M145.39,70.68V75c0,1.89,1.25,3.78,3.73,5.22,5,2.9,13.12,2.9,18.15,0,2.53-1.46,3.79-3.38,3.79-5.29V70.61c0,1.91-1.26,3.83-3.79,5.29-5,2.9-13.16,2.9-18.15,0C146.64,74.46,145.4,72.57,145.39,70.68Z"/><path class="cls-2" d="M149.18,65.39c-5,2.9-5.06,7.61-.06,10.51s13.12,2.9,18.15,0,5.05-7.61.06-10.51S154.21,62.48,149.18,65.39Z"/><path class="cls-1" d="M145.39,64v4.27c0,1.89,1.25,3.78,3.73,5.22,5,2.9,13.12,2.9,18.15,0,2.53-1.46,3.79-3.38,3.79-5.29V63.94c0,1.91-1.26,3.83-3.79,5.29-5,2.9-13.16,2.9-18.15,0C146.64,67.79,145.4,65.91,145.39,64Z"/><path class="cls-2" d="M149.18,58.72c-5,2.9-5.06,7.61-.06,10.51s13.12,2.9,18.15,0,5.05-7.61.06-10.51S154.21,55.82,149.18,58.72Z"/><path class="cls-1" d="M145.39,57.35v4.27c0,1.89,1.25,3.78,3.73,5.22,5,2.9,13.12,2.9,18.15,0,2.53-1.46,3.79-3.38,3.79-5.29V57.28c0,1.91-1.26,3.83-3.79,5.29-5,2.9-13.16,2.9-18.15,0C146.64,61.13,145.4,59.24,145.39,57.35Z"/><path class="cls-2" d="M149.18,52.06c-5,2.9-5.06,7.61-.06,10.51s13.12,2.9,18.15,0,5.05-7.61.06-10.51S154.21,49.15,149.18,52.06Z"/><path class="cls-1" d="M145.39,50.68V55c0,1.89,1.25,3.78,3.73,5.22,5,2.9,13.12,2.9,18.15,0,2.53-1.46,3.79-3.38,3.79-5.29V50.61c0,1.91-1.26,3.83-3.79,5.29-5,2.9-13.16,2.9-18.15,0C146.64,54.46,145.4,52.57,145.39,50.68Z"/><path class="cls-2" d="M149.18,45.39c-5,2.9-5.06,7.61-.06,10.51s13.12,2.9,18.15,0,5.05-7.61.06-10.51S154.21,42.49,149.18,45.39Z"/><path class="cls-1" d="M145.39,44.31v4.27c0,1.89,1.25,3.78,3.73,5.22,5,2.9,13.12,2.9,18.15,0,2.53-1.46,3.79-3.38,3.79-5.29V44.24c0,1.91-1.26,3.83-3.79,5.29-5,2.9-13.16,2.9-18.15,0C146.64,48.09,145.4,46.2,145.39,44.31Z"/><path class="cls-2" d="M149.18,39c-5,2.9-5.06,7.61-.06,10.51s13.12,2.9,18.15,0,5.05-7.61.06-10.51S154.21,36.11,149.18,39Z"/><path class="cls-1" d="M145.39,37.64v4.27c0,1.89,1.25,3.78,3.73,5.22,5,2.9,13.12,2.9,18.15,0,2.53-1.46,3.79-3.38,3.79-5.29V37.57c0,1.91-1.26,3.83-3.79,5.29-5,2.9-13.16,2.9-18.15,0C146.64,41.42,145.4,39.54,145.39,37.64Z"/><path class="cls-2" d="M149.18,32.35c-5,2.9-5.06,7.61-.06,10.51s13.12,2.9,18.15,0,5.05-7.61.06-10.51S154.21,29.45,149.18,32.35Z"/><path class="cls-1" d="M145.39,31v4.27c0,1.89,1.25,3.78,3.73,5.22,5,2.9,13.12,2.9,18.15,0,2.53-1.46,3.79-3.38,3.79-5.29V30.9c0,1.91-1.26,3.83-3.79,5.29-5,2.9-13.16,2.9-18.15,0C146.64,34.76,145.4,32.87,145.39,31Z"/><path class="cls-2" d="M149.18,25.68c-5,2.9-5.06,7.61-.06,10.51s13.12,2.9,18.15,0,5.05-7.61.06-10.51S154.21,22.78,149.18,25.68Z"/><path class="cls-1" d="M145.39,24.31v4.27c0,1.89,1.25,3.78,3.73,5.22,5,2.9,13.12,2.9,18.15,0,2.53-1.46,3.79-3.38,3.79-5.29V24.24c0,1.91-1.26,3.83-3.79,5.29-5,2.9-13.16,2.9-18.15,0C146.64,28.09,145.4,26.2,145.39,24.31Z"/><path class="cls-2" d="M149.18,19c-5,2.9-5.06,7.61-.06,10.51s13.12,2.9,18.15,0,5.05-7.61.06-10.51S154.21,16.12,149.18,19Z"/><path class="cls-1" d="M145.39,17.65v4.27c0,1.89,1.25,3.78,3.73,5.22,5,2.9,13.12,2.9,18.15,0,2.53-1.46,3.79-3.38,3.79-5.29V17.57c0,1.91-1.26,3.83-3.79,5.29-5,2.9-13.16,2.9-18.15,0C146.64,21.43,145.4,19.54,145.39,17.65Z"/><path class="cls-2" d="M149.18,12.35c-5,2.9-5.06,7.61-.06,10.51s13.12,2.9,18.15,0,5.05-7.61.06-10.51S154.21,9.45,149.18,12.35Z"/><path class="cls-1" d="M167.28,87.3v4.27c0,1.89,1.25,3.78,3.73,5.22,5,2.9,13.12,2.9,18.15,0,2.53-1.46,3.79-3.38,3.79-5.29V87.23c0,1.91-1.26,3.83-3.79,5.29-5,2.9-13.16,2.9-18.15,0C168.53,91.08,167.29,89.19,167.28,87.3Z"/><path class="cls-2" d="M171.07,82c-5,2.9-5.06,7.61-.06,10.51s13.12,2.9,18.15,0,5.05-7.61.06-10.51S176.1,79.11,171.07,82Z"/><path class="cls-1" d="M167.28,80.64v4.27c0,1.89,1.25,3.78,3.73,5.22,5,2.9,13.12,2.9,18.15,0,2.53-1.46,3.79-3.38,3.79-5.29V80.56c0,1.91-1.26,3.83-3.79,5.29-5,2.9-13.16,2.9-18.15,0C168.53,84.41,167.29,82.53,167.28,80.64Z"/><path class="cls-2" d="M171.07,75.34C166,78.25,166,83,171,85.86s13.12,2.9,18.15,0,5.05-7.61.06-10.51S176.1,72.44,171.07,75.34Z"/><path class="cls-1" d="M167.28,74v4.27c0,1.89,1.25,3.78,3.73,5.22,5,2.9,13.12,2.9,18.15,0C191.71,82,193,80.08,193,78.17V73.9c0,1.91-1.26,3.83-3.79,5.29-5,2.9-13.16,2.9-18.15,0C168.53,77.75,167.29,75.86,167.28,74Z"/><path class="cls-2" d="M171.07,68.68c-5,2.9-5.06,7.61-.06,10.51s13.12,2.9,18.15,0,5.05-7.61.06-10.51S176.1,65.77,171.07,68.68Z"/><path class="cls-1" d="M167.28,67.31v4.27c0,1.89,1.25,3.78,3.73,5.22,5,2.9,13.12,2.9,18.15,0,2.53-1.46,3.79-3.38,3.79-5.29V67.23c0,1.91-1.26,3.83-3.79,5.29-5,2.9-13.16,2.9-18.15,0C168.53,71.08,167.29,69.2,167.28,67.31Z"/><path class="cls-2" d="M171.07,62c-5,2.9-5.06,7.61-.06,10.51s13.12,2.9,18.15,0,5.05-7.61.06-10.51S176.1,59.11,171.07,62Z"/><path class="cls-1" d="M167.28,60.64v4.27c0,1.89,1.25,3.78,3.73,5.22,5,2.9,13.12,2.9,18.15,0,2.53-1.46,3.79-3.38,3.79-5.29V60.57c0,1.91-1.26,3.83-3.79,5.29-5,2.9-13.16,2.9-18.15,0C168.53,64.42,167.29,62.53,167.28,60.64Z"/><path class="cls-2" d="M171.07,55.35C166,58.25,166,63,171,65.86s13.12,2.9,18.15,0,5.05-7.61.06-10.51S176.1,52.44,171.07,55.35Z"/><polygon class="cls-4" points="90.78 46.55 75.59 37.72 69.39 41.3 84.57 50.13 90.78 46.55"/><polygon class="cls-4" points="90.76 39.42 75.57 30.59 75.59 37.72 90.78 46.55 90.76 39.42"/><polygon class="cls-5" points="84.55 43 69.36 34.17 69.39 41.3 84.57 50.13 84.55 43"/><polygon class="cls-5" points="90.76 39.42 75.57 30.59 69.36 34.17 84.55 43 90.76 39.42"/><polygon class="cls-5" points="84.55 43 84.57 50.13 90.78 46.55 90.76 39.42 84.55 43"/><polygon class="cls-4" points="82.74 51.19 67.55 42.36 61.35 45.95 76.53 54.77 82.74 51.19"/><polygon class="cls-4" points="82.72 44.06 67.53 35.23 67.55 42.36 82.74 51.19 82.72 44.06"/><polygon class="cls-4" points="90.74 32.22 75.55 23.39 69.34 26.97 84.53 35.8 90.74 32.22"/><polygon class="cls-4" points="90.72 25.09 75.53 16.26 75.55 23.39 90.74 32.22 90.72 25.09"/><polygon class="cls-5" points="76.51 47.64 61.33 38.82 61.35 45.95 76.53 54.77 76.51 47.64"/><polygon class="cls-5" points="82.72 44.06 67.53 35.23 61.33 38.82 76.51 47.64 82.72 44.06"/><polygon class="cls-6" points="76.51 47.64 76.53 54.77 82.74 51.19 82.72 44.06 76.51 47.64"/><polygon class="cls-4" points="74.7 55.83 59.51 47.01 53.31 50.59 68.49 59.41 74.7 55.83"/><polygon class="cls-4" points="74.68 48.7 59.49 39.88 59.51 47.01 74.7 55.83 74.68 48.7"/><polygon class="cls-5" points="84.51 28.67 84.53 35.8 90.74 32.22 90.72 25.09 84.51 28.67"/><polygon class="cls-5" points="84.51 28.67 69.33 19.84 69.34 26.97 84.53 35.8 84.51 28.67"/><polygon class="cls-5" points="90.72 25.09 75.53 16.26 69.33 19.84 84.51 28.67 90.72 25.09"/><polygon class="cls-4" points="82.7 36.86 67.51 28.03 61.31 31.61 76.49 40.44 82.7 36.86"/><polygon class="cls-4" points="82.68 29.73 67.49 20.9 67.51 28.03 82.7 36.86 82.68 29.73"/><polygon class="cls-5" points="68.47 52.28 68.49 59.41 74.7 55.83 74.68 48.7 68.47 52.28"/><polygon class="cls-5" points="68.47 52.28 53.29 43.46 53.31 50.59 68.49 59.41 68.47 52.28"/><polygon class="cls-5" points="74.68 48.7 59.49 39.88 53.29 43.46 68.47 52.28 74.68 48.7"/><polygon class="cls-4" points="66.66 60.47 51.47 51.65 45.27 55.23 60.45 64.06 66.66 60.47"/><polygon class="cls-4" points="66.64 53.34 51.45 44.52 51.47 51.65 66.66 60.47 66.64 53.34"/><polygon class="cls-5" points="82.68 29.73 67.49 20.9 61.29 24.48 76.47 33.31 82.68 29.73"/><polygon class="cls-5" points="76.47 33.31 61.29 24.48 61.31 31.61 76.49 40.44 76.47 33.31"/><polygon class="cls-5" points="76.47 33.31 76.49 40.44 82.7 36.86 82.68 29.73 76.47 33.31"/><polygon class="cls-4" points="74.66 41.5 59.47 32.67 53.27 36.26 68.45 45.08 74.66 41.5"/><polygon class="cls-4" points="74.64 34.37 59.45 25.54 59.47 32.67 74.66 41.5 74.64 34.37"/><polygon class="cls-5" points="66.64 53.34 51.45 44.52 45.25 48.1 60.44 56.93 66.64 53.34"/><polygon class="cls-5" points="60.44 56.93 45.25 48.1 45.27 55.23 60.45 64.06 60.44 56.93"/><polygon class="cls-5" points="60.44 56.93 60.45 64.06 66.66 60.47 66.64 53.34 60.44 56.93"/><polygon class="cls-4" points="58.62 65.11 43.43 56.29 37.23 59.87 52.41 68.7 58.62 65.11"/><polygon class="cls-4" points="58.6 57.98 43.41 49.16 43.43 56.29 58.62 65.11 58.6 57.98"/><polygon class="cls-5" points="68.43 37.95 53.24 29.13 53.27 36.26 68.45 45.08 68.43 37.95"/><polygon class="cls-5" points="74.64 34.37 59.45 25.54 53.24 29.13 68.43 37.95 74.64 34.37"/><polygon class="cls-5" points="68.43 37.95 68.45 45.08 74.66 41.5 74.64 34.37 68.43 37.95"/><polygon class="cls-4" points="66.62 46.14 51.43 37.32 45.23 40.9 60.41 49.73 66.62 46.14"/><polygon class="cls-4" points="66.6 39.01 51.41 30.19 51.43 37.32 66.62 46.14 66.6 39.01"/><polygon class="cls-5" points="52.39 61.57 52.41 68.7 58.62 65.11 58.6 57.98 52.39 61.57"/><polygon class="cls-5" points="58.6 57.98 43.41 49.16 37.21 52.74 52.39 61.57 58.6 57.98"/><polygon class="cls-5" points="52.39 61.57 37.21 52.74 37.23 59.87 52.41 68.7 52.39 61.57"/><polygon class="cls-4" points="50.58 69.76 35.39 60.93 29.19 64.51 44.38 73.34 50.58 69.76"/><polygon class="cls-4" points="50.56 62.63 35.37 53.8 35.39 60.93 50.58 69.76 50.56 62.63"/><polygon class="cls-5" points="66.6 39.01 51.41 30.19 45.21 33.77 60.39 42.59 66.6 39.01"/><polygon class="cls-5" points="60.39 42.59 45.21 33.77 45.23 40.9 60.41 49.73 60.39 42.59"/><polygon class="cls-5" points="60.39 42.59 60.41 49.73 66.62 46.14 66.6 39.01 60.39 42.59"/><polygon class="cls-4" points="58.58 50.78 43.39 41.96 37.19 45.54 52.37 54.37 58.58 50.78"/><polygon class="cls-4" points="58.56 43.65 43.37 34.83 43.39 41.96 58.58 50.78 58.56 43.65"/><polygon class="cls-5" points="44.35 66.21 29.17 57.38 29.19 64.51 44.38 73.34 44.35 66.21"/><polygon class="cls-5" points="44.35 66.21 44.38 73.34 50.58 69.76 50.56 62.63 44.35 66.21"/><polygon class="cls-5" points="50.56 62.63 35.37 53.8 29.17 57.38 44.35 66.21 50.56 62.63"/><polygon class="cls-4" points="42.54 74.4 27.36 65.57 21.15 69.16 36.33 77.98 42.54 74.4"/><polygon class="cls-4" points="42.52 67.27 27.33 58.44 27.36 65.57 42.54 74.4 42.52 67.27"/><polygon class="cls-5" points="52.35 47.24 52.37 54.37 58.58 50.78 58.56 43.65 52.35 47.24"/><polygon class="cls-5" points="58.56 43.65 43.37 34.83 37.16 38.41 52.35 47.24 58.56 43.65"/><polygon class="cls-5" points="52.35 47.24 37.16 38.41 37.19 45.54 52.37 54.37 52.35 47.24"/><polygon class="cls-4" points="50.54 55.43 35.35 46.6 29.15 50.18 44.34 59.01 50.54 55.43"/><polygon class="cls-4" points="50.52 48.3 35.33 39.47 35.35 46.6 50.54 55.43 50.52 48.3"/><polygon class="cls-5" points="36.31 70.85 21.13 62.03 21.15 69.16 36.33 77.98 36.31 70.85"/><polygon class="cls-5" points="42.52 67.27 27.33 58.44 21.13 62.03 36.31 70.85 42.52 67.27"/><polygon class="cls-5" points="36.31 70.85 36.33 77.98 42.54 74.4 42.52 67.27 36.31 70.85"/><polygon class="cls-4" points="34.5 79.04 19.31 70.22 13.11 73.8 28.3 82.62 34.5 79.04"/><polygon class="cls-4" points="34.48 71.91 19.29 63.09 19.31 70.22 34.5 79.04 34.48 71.91"/><polygon class="cls-5" points="44.31 51.88 29.13 43.05 29.15 50.18 44.34 59.01 44.31 51.88"/><polygon class="cls-5" points="50.52 48.3 35.33 39.47 29.13 43.05 44.31 51.88 50.52 48.3"/><polygon class="cls-7" points="44.31 51.88 44.34 59.01 50.54 55.43 50.52 48.3 44.31 51.88"/><polygon class="cls-4" points="42.5 60.07 27.31 51.24 21.11 54.83 36.29 63.65 42.5 60.07"/><polygon class="cls-4" points="42.48 52.94 27.29 44.11 27.31 51.24 42.5 60.07 42.48 52.94"/><polygon class="cls-8" points="28.27 75.49 28.3 82.62 34.5 79.04 34.48 71.91 28.27 75.49"/><polygon class="cls-5" points="28.27 75.49 13.09 66.67 13.11 73.8 28.3 82.62 28.27 75.49"/><polygon class="cls-5" points="34.48 71.91 19.29 63.09 13.09 66.67 28.27 75.49 34.48 71.91"/><polygon class="cls-4" points="26.46 83.68 11.28 74.86 5.07 78.44 20.25 87.27 26.46 83.68"/><polygon class="cls-4" points="26.44 76.55 11.26 67.72 11.28 74.86 26.46 83.68 26.44 76.55"/><polygon class="cls-5" points="36.27 56.52 36.29 63.65 42.5 60.07 42.48 52.94 36.27 56.52"/><polygon class="cls-5" points="36.27 56.52 21.09 47.7 21.11 54.83 36.29 63.65 36.27 56.52"/><polygon class="cls-5" points="42.48 52.94 27.29 44.11 21.09 47.7 36.27 56.52 42.48 52.94"/><polygon class="cls-4" points="34.46 64.71 19.27 55.88 13.07 59.47 28.25 68.29 34.46 64.71"/><polygon class="cls-4" points="34.44 57.58 19.25 48.75 19.27 55.88 34.46 64.71 34.44 57.58"/><polygon class="cls-5" points="26.44 76.55 11.26 67.73 5.05 71.31 20.23 80.14 26.44 76.55"/><polygon class="cls-5" points="20.23 80.14 5.05 71.31 5.07 78.44 20.25 87.27 20.23 80.14"/><polygon class="cls-5" points="20.23 80.14 20.25 87.27 26.46 83.68 26.44 76.55 20.23 80.14"/><polygon class="cls-5" points="28.23 61.16 13.05 52.34 13.07 59.47 28.25 68.29 28.23 61.16"/><polygon class="cls-5" points="34.44 57.58 19.25 48.75 13.05 52.34 28.23 61.16 34.44 57.58"/><polygon class="cls-5" points="28.23 61.16 28.25 68.29 34.46 64.71 34.44 57.58 28.23 61.16"/><polygon class="cls-4" points="26.42 69.35 11.23 60.52 5.03 64.11 20.21 72.94 26.42 69.35"/><polygon class="cls-4" points="26.4 62.22 11.21 53.4 11.23 60.52 26.42 69.35 26.4 62.22"/><polygon class="cls-5" points="26.4 62.22 11.21 53.4 5.01 56.98 20.19 65.81 26.4 62.22"/><polygon class="cls-5" points="20.19 65.81 20.21 72.94 26.42 69.35 26.4 62.22 20.19 65.81"/><polygon class="cls-5" points="20.19 65.81 5.01 56.98 5.03 64.11 20.21 72.94 20.19 65.81"/><polygon class="cls-4" points="95.7 16.85 80.51 8.03 0 54.51 15.19 63.34 95.7 16.85"/><path class="cls-9" d="M95.79,49,15.28,95.5l-.09-32.16L95.7,16.85ZM52.41,68.7l6.21-3.58,0-7.13-6.21,3.58,0,7.13M20.25,87.27l6.21-3.58,0-7.13-6.21,3.58,0,7.13M36.33,78l6.21-3.58,0-7.13-6.21,3.58,0,7.13M68.49,59.41l6.21-3.58,0-7.13-6.21,3.58,0,7.13m-16.12-5,6.21-3.58,0-7.13-6.21,3.58,0,7.13M20.21,72.93l6.21-3.58,0-7.13L20.19,65.8l0,7.13m16.08-9.28,6.21-3.58,0-7.13-6.21,3.58,0,7.13M68.45,45.08l6.21-3.58,0-7.13L68.43,38l0,7.13M28.3,82.62,34.5,79l0-7.13-6.2,3.58,0,7.13M84.57,50.13l6.2-3.58,0-7.13L84.55,43l0,7.13m-8,4.64,6.2-3.58,0-7.13-6.2,3.58,0,7.13M44.38,73.34l6.2-3.58,0-7.13-6.2,3.58,0,7.13m16.08-9.28,6.2-3.58,0-7.13-6.2,3.58,0,7.13m-32.2,4.24,6.2-3.58,0-7.13-6.2,3.58,0,7.13M76.49,40.44l6.2-3.58,0-7.13-6.2,3.58,0,7.13m8-4.64,6.2-3.58,0-7.13-6.2,3.58,0,7.13M60.41,49.72l6.2-3.58,0-7.13-6.2,3.58,0,7.13M44.33,59l6.2-3.58,0-7.13-6.2,3.58,0,7.13"/><polygon class="cls-5" points="15.19 63.34 0 54.51 0.09 86.67 15.28 95.5 15.19 63.34"/></g></g></svg>