<svg xmlns="http://www.w3.org/2000/svg" viewBox="0 0 131.97 168.3"><defs><style>.cls-1{font-size:6.01px;fill:#58595b;letter-spacing:0.01em;}.cls-1,.cls-21,.cls-22,.cls-23{font-family:Bebas, Bebas;}.cls-2{letter-spacing:0.02em;}.cls-3{letter-spacing:0.02em;}.cls-4{letter-spacing:0.02em;}.cls-5{letter-spacing:0.01em;}.cls-6{letter-spacing:0.04em;}.cls-7{letter-spacing:0.01em;}.cls-8{letter-spacing:0.04em;}.cls-9{fill:#efa760;}.cls-10{fill:#f6921e;}.cls-11,.cls-21{fill:#d3712f;}.cls-12{fill:#6069a0;}.cls-13{fill:#4e5a93;}.cls-14,.cls-22{fill:#3c4b84;}.cls-15{fill:#c98181;}.cls-16{fill:#bf6a6a;}.cls-17,.cls-23{fill:#b75953;}.cls-18{fill:#e8e8e8;}.cls-19{fill:#d5d2d0;}.cls-20{fill:#c4bfbc;}.cls-21,.cls-22,.cls-23{font-size:12.27px;letter-spacing:0.02em;}</style></defs><title>Asset 12</title><g id="Layer_2" data-name="Layer 2"><g id="Layer_1-2" data-name="Layer 1"><text class="cls-1" transform="matrix(0.98, -0.56, 0.86, 0.51, 44.43, 160.18)">E<tspan class="cls-2" x="3.03" y="0">v</tspan><tspan class="cls-3" x="6.02" y="0">alu</tspan><tspan class="cls-4" x="14" y="0">a</tspan><tspan class="cls-3" x="16.99" y="0">ting ha</tspan><tspan class="cls-5" x="35.41" y="0">r</tspan><tspan class="cls-3" x="37.44" y="0">d s</tspan><tspan class="cls-6" x="44.84" y="0">k</tspan><tspan class="cls-3" x="47.88" y="0">ills is ha</tspan><tspan class="cls-7" x="68.25" y="0">rd</tspan><tspan class="cls-3" x="73.72" y="0">.</tspan><tspan class="cls-8"><tspan x="44.03" y="7.21">I</tspan><tspan class="cls-3" x="45.68" y="7.21">t should be</tspan></tspan><tspan class="cls-3"><tspan x="46.74" y="14.41" xml:space="preserve"> simplifie</tspan><tspan class="cls-5" x="70.28" y="14.41">d</tspan><tspan x="73.72" y="14.41">.</tspan></tspan></text><polygon class="cls-9" points="11.62 136.89 23.23 130.41 11.62 123.35 0 129.82 11.62 136.89"/><polygon class="cls-10" points="0 129.82 0 136.47 11.62 143.41 11.62 136.89 0 129.82"/><polygon class="cls-11" points="23.23 130.41 23.23 136.42 11.62 143.41 11.62 136.89 23.23 130.41"/><polygon class="cls-9" points="11.62 126.86 23.23 120.38 11.62 113.32 0 119.8 11.62 126.86"/><polygon class="cls-10" points="0 119.8 0 126.45 11.62 133.38 11.62 126.86 0 119.8"/><polygon class="cls-11" points="23.23 120.38 23.23 126.39 11.62 133.38 11.62 126.86 23.23 120.38"/><polygon class="cls-9" points="11.62 116.83 23.23 110.36 11.62 103.29 0 109.77 11.62 116.83"/><polygon class="cls-10" points="0 109.77 0 116.42 11.62 123.35 11.62 116.83 0 109.77"/><polygon class="cls-11" points="23.23 110.36 23.23 116.36 11.62 123.35 11.62 116.83 23.23 110.36"/><polygon class="cls-12" points="39.37 120.34 50.99 113.86 39.37 106.8 27.75 113.28 39.37 120.34"/><polygon class="cls-13" points="27.75 113.28 27.75 119.93 39.37 126.86 39.37 120.34 27.75 113.28"/><polygon class="cls-14" points="50.99 113.86 50.99 119.87 39.37 126.86 39.37 120.34 50.99 113.86"/><polygon class="cls-12" points="39.37 110.31 50.99 103.84 39.37 96.77 27.75 103.25 39.37 110.31"/><polygon class="cls-13" points="27.75 103.25 27.75 109.9 39.37 116.83 39.37 110.31 27.75 103.25"/><polygon class="cls-14" points="50.99 103.84 50.99 109.84 39.37 116.83 39.37 110.31 50.99 103.84"/><polygon class="cls-12" points="39.37 100.28 50.99 93.81 39.37 86.75 27.75 93.22 39.37 100.28"/><polygon class="cls-13" points="27.75 93.22 27.75 99.87 39.37 106.8 39.37 100.28 27.75 93.22"/><polygon class="cls-14" points="50.99 93.81 50.99 99.81 39.37 106.8 39.37 100.28 50.99 93.81"/><polygon class="cls-12" points="39.37 90.26 50.99 83.78 39.37 76.72 27.75 83.19 39.37 90.26"/><polygon class="cls-13" points="27.75 83.19 27.75 89.84 39.37 96.77 39.37 90.26 27.75 83.19"/><polygon class="cls-14" points="50.99 83.78 50.99 89.79 39.37 96.77 39.37 90.26 50.99 83.78"/><polygon class="cls-12" points="39.37 80.23 50.99 73.75 39.37 66.69 27.75 73.16 39.37 80.23"/><polygon class="cls-13" points="27.75 73.16 27.75 79.81 39.37 86.75 39.37 80.23 27.75 73.16"/><polygon class="cls-14" points="50.99 73.75 50.99 79.76 39.37 86.75 39.37 80.23 50.99 73.75"/><polygon class="cls-12" points="39.37 70.2 50.99 63.72 39.37 56.66 27.75 63.14 39.37 70.2"/><polygon class="cls-13" points="27.75 63.14 27.75 69.79 39.37 76.72 39.37 70.2 27.75 63.14"/><polygon class="cls-14" points="50.99 63.72 50.99 69.73 39.37 76.72 39.37 70.2 50.99 63.72"/><polygon class="cls-12" points="39.37 60.17 50.99 53.7 39.37 46.63 27.75 53.11 39.37 60.17"/><polygon class="cls-13" points="27.75 53.11 27.75 59.76 39.37 66.69 39.37 60.17 27.75 53.11"/><polygon class="cls-14" points="50.99 53.7 50.99 59.7 39.37 66.69 39.37 60.17 50.99 53.7"/><polygon class="cls-15" points="67.13 103.79 78.74 97.32 67.13 90.25 55.51 96.73 67.13 103.79"/><polygon class="cls-16" points="55.51 96.73 55.51 103.38 67.13 110.31 67.13 103.79 55.51 96.73"/><polygon class="cls-17" points="78.74 97.32 78.74 103.32 67.13 110.31 67.13 103.79 78.74 97.32"/><polygon class="cls-15" points="67.13 93.77 78.74 87.29 67.13 80.22 55.51 86.7 67.13 93.77"/><polygon class="cls-16" points="55.51 86.7 55.51 93.35 67.13 100.28 67.13 93.77 55.51 86.7"/><polygon class="cls-17" points="78.74 87.29 78.74 93.3 67.13 100.28 67.13 93.77 78.74 87.29"/><polygon class="cls-18" points="11.62 106.8 23.23 100.33 11.62 93.26 0 99.74 11.62 106.8"/><polygon class="cls-19" points="0 99.74 0 106.39 11.62 113.32 11.62 106.8 0 99.74"/><polygon class="cls-20" points="23.23 100.33 23.23 106.33 11.62 113.32 11.62 106.8 23.23 100.33"/><polygon class="cls-18" points="11.62 96.78 23.23 90.3 11.62 83.24 0 89.71 11.62 96.78"/><polygon class="cls-19" points="0 89.71 0 96.36 11.62 103.29 11.62 96.78 0 89.71"/><polygon class="cls-20" points="23.23 90.3 23.23 96.31 11.62 103.29 11.62 96.78 23.23 90.3"/><polygon class="cls-18" points="11.62 86.75 23.23 80.27 11.62 73.21 0 79.68 11.62 86.75"/><polygon class="cls-19" points="0 79.68 0 86.33 11.62 93.26 11.62 86.75 0 79.68"/><polygon class="cls-20" points="23.23 80.27 23.23 86.28 11.62 93.26 11.62 86.75 23.23 80.27"/><polygon class="cls-18" points="11.62 76.72 23.23 70.24 11.62 63.18 0 69.66 11.62 76.72"/><polygon class="cls-19" points="0 69.66 0 76.31 11.62 83.24 11.62 76.72 0 69.66"/><polygon class="cls-20" points="23.23 70.24 23.23 76.25 11.62 83.24 11.62 76.72 23.23 70.24"/><polygon class="cls-18" points="11.62 66.69 23.23 60.22 11.62 53.15 0 59.63 11.62 66.69"/><polygon class="cls-19" points="0 59.63 0 66.28 11.62 73.21 11.62 66.69 0 59.63"/><polygon class="cls-20" points="23.23 60.22 23.23 66.22 11.62 73.21 11.62 66.69 23.23 60.22"/><polygon class="cls-18" points="11.62 56.66 23.23 50.19 11.62 43.12 0 49.6 11.62 56.66"/><polygon class="cls-19" points="0 49.6 0 56.25 11.62 63.18 11.62 56.66 0 49.6"/><polygon class="cls-20" points="23.23 50.19 23.23 56.19 11.62 63.18 11.62 56.66 23.23 50.19"/><polygon class="cls-18" points="11.62 46.63 23.23 40.16 11.62 33.09 0 39.57 11.62 46.63"/><polygon class="cls-19" points="0 39.57 0 46.22 11.62 53.15 11.62 46.63 0 39.57"/><polygon class="cls-20" points="23.23 40.16 23.23 46.16 11.62 53.15 11.62 46.63 23.23 40.16"/><polygon class="cls-18" points="39.37 50.14 50.99 43.67 39.37 36.6 27.75 43.08 39.37 50.14"/><polygon class="cls-19" points="27.75 43.08 27.75 49.73 39.37 56.66 39.37 50.14 27.75 43.08"/><polygon class="cls-20" points="50.99 43.67 50.99 49.67 39.37 56.66 39.37 50.14 50.99 43.67"/><polygon class="cls-18" points="39.37 40.12 50.99 33.64 39.37 26.58 27.75 33.05 39.37 40.12"/><polygon class="cls-19" points="27.75 33.05 27.75 39.7 39.37 46.63 39.37 40.12 27.75 33.05"/><polygon class="cls-20" points="50.99 33.64 50.99 39.65 39.37 46.63 39.37 40.12 50.99 33.64"/><polygon class="cls-18" points="39.37 30.09 50.99 23.61 39.37 16.55 27.75 23.02 39.37 30.09"/><polygon class="cls-19" points="27.75 23.02 27.75 29.67 39.37 36.6 39.37 30.09 27.75 23.02"/><polygon class="cls-20" points="50.99 23.61 50.99 29.62 39.37 36.6 39.37 30.09 50.99 23.61"/><polygon class="cls-18" points="67.13 83.74 78.74 77.26 67.13 70.2 55.51 76.67 67.13 83.74"/><polygon class="cls-19" points="55.51 76.67 55.51 83.32 67.13 90.25 67.13 83.74 55.51 76.67"/><polygon class="cls-20" points="78.74 77.26 78.74 83.27 67.13 90.25 67.13 83.74 78.74 77.26"/><polygon class="cls-18" points="67.13 73.71 78.74 67.23 67.13 60.17 55.51 66.64 67.13 73.71"/><polygon class="cls-19" points="55.51 66.64 55.51 73.3 67.13 80.22 67.13 73.71 55.51 66.64"/><polygon class="cls-20" points="78.74 67.23 78.74 73.24 67.13 80.22 67.13 73.71 78.74 67.23"/><polygon class="cls-18" points="67.13 63.68 78.74 57.2 67.13 50.14 55.51 56.62 67.13 63.68"/><polygon class="cls-19" points="55.51 56.62 55.51 63.27 67.13 70.2 67.13 63.68 55.51 56.62"/><polygon class="cls-20" points="78.74 57.2 78.74 63.21 67.13 70.2 67.13 63.68 78.74 57.2"/><polygon class="cls-18" points="67.13 53.65 78.74 47.18 67.13 40.11 55.51 46.59 67.13 53.65"/><polygon class="cls-19" points="55.51 46.59 55.51 53.24 67.13 60.17 67.13 53.65 55.51 46.59"/><polygon class="cls-20" points="78.74 47.18 78.74 53.18 67.13 60.17 67.13 53.65 78.74 47.18"/><polygon class="cls-18" points="67.13 43.63 78.74 37.15 67.13 30.08 55.51 36.56 67.13 43.63"/><polygon class="cls-19" points="55.51 36.56 55.51 43.21 67.13 50.14 67.13 43.63 55.51 36.56"/><polygon class="cls-20" points="78.74 37.15 78.74 43.15 67.13 50.14 67.13 43.63 78.74 37.15"/><polygon class="cls-18" points="67.13 33.6 78.74 27.12 67.13 20.06 55.51 26.53 67.13 33.6"/><polygon class="cls-19" points="55.51 26.53 55.51 33.18 67.13 40.11 67.13 33.6 55.51 26.53"/><polygon class="cls-20" points="78.74 27.12 78.74 33.13 67.13 40.11 67.13 33.6 78.74 27.12"/><polygon class="cls-18" points="67.13 23.57 78.74 17.09 67.13 10.03 55.51 16.5 67.13 23.57"/><polygon class="cls-19" points="55.51 16.5 55.51 23.16 67.13 30.08 67.13 23.57 55.51 16.5"/><polygon class="cls-20" points="78.74 17.09 78.74 23.1 67.13 30.08 67.13 23.57 78.74 17.09"/><polygon class="cls-18" points="67.13 13.54 78.74 7.06 67.13 0 55.51 6.48 67.13 13.54"/><polygon class="cls-19" points="55.51 6.48 55.51 13.13 67.13 20.06 67.13 13.54 55.51 6.48"/><polygon class="cls-20" points="78.74 7.06 78.74 13.07 67.13 20.06 67.13 13.54 78.74 7.06"/><text class="cls-21" transform="matrix(0.99, -0.54, 0.85, 0.53, 27.57, 148.97)">A</text><text class="cls-22" transform="matrix(0.99, -0.54, 0.85, 0.53, 55.58, 133.42)">B</text><text class="cls-23" transform="matrix(0.99, -0.54, 0.85, 0.53, 83.6, 117.87)">C</text></g></g></svg>